<?xml version="1.0" encoding="UTF-8"?>
<svg xmlns="http://www.w3.org/2000/svg" viewBox="0 0 530 350" role="img" aria-labelledby="title desc">
  <title id="title">goh wordmark</title>
  <desc id="desc">Lowercase serif goh wordmark with a green arrow through the o counter.</desc>
  <metadata>{
    "source": "source/wordmark-source.png",
    "sourceCrop": {"x":690,"y":125,"width":530,"height":350},
    "method": "letters traced from the cream silhouette of the source crop; arrow redrawn as a geometric polygon",
    "colors": {"ground":"#030309","type":"#F8F5EF","accent":"#AADB35"}
  }</metadata>
  <rect id="ground" width="530" height="350" fill="#030309"/>
  <rect id="crop-frame" x="0.5" y="0.5" width="529" height="349" fill="none" stroke="#AADB35" stroke-width="1" stroke-dasharray="8 8" opacity="0.65"/>
  <g id="goh-wordmark" fill-rule="evenodd">
    <g id="arrow" fill="#AADB35">
      <polygon points="154,172 243,172 238,161 282,178 238,195 243,184 153,184"/>
    </g>
    <g id="letters" fill="#F8F5EF">
      <path d="M 378.500 26.626 C 373.550 28.481, 363.762 31.899, 356.750 34.221 C 349.738 36.543, 344 38.743, 344 39.110 C 344 39.477, 345.462 40.054, 347.250 40.392 C 352.763 41.434, 356.978 44.711, 359.318 49.777 L 361.500 54.500 361.500 143 L 361.500 231.500 359.661 236.267 C 357.646 241.490, 353.674 245.056, 347.764 246.949 C 345.709 247.607, 343.788 248.534, 343.495 249.009 C 342.517 250.591, 351.267 251.024, 378.917 250.761 C 396.320 250.595, 406.457 250.130, 406.671 249.486 C 406.857 248.929, 404.665 247.640, 401.799 246.622 C 398.934 245.605, 395.416 243.515, 393.981 241.980 C 392.546 240.444, 390.839 237.406, 390.186 235.228 C 389.347 232.427, 389.002 218.133, 389.007 186.384 L 389.013 141.500 390.976 138.522 C 394.947 132.497, 402.527 125.850, 408.948 122.762 C 414.442 120.119, 416.953 119.546, 424.500 119.210 C 431.870 118.883, 434.505 119.189, 439.049 120.902 C 442.297 122.126, 446.332 124.710, 448.778 127.131 C 451.141 129.471, 453.944 133.709, 455.228 136.884 L 457.500 142.500 457.500 187 L 457.500 231.500 455.661 236.267 C 453.568 241.690, 449.525 245.207, 443.250 247.061 C 440.913 247.751, 439 248.639, 439 249.033 C 439 250.622, 446.812 251.045, 474.746 250.969 C 498.344 250.906, 504 250.634, 504 249.564 C 504 248.819, 501.950 247.721, 499.324 247.060 C 493.513 245.597, 487.652 240.013, 486.115 234.477 C 485.387 231.854, 485.009 215.487, 485.006 186.386 C 485.002 161.302, 484.569 139.949, 484.001 136.886 C 482.522 128.910, 476.680 117.749, 471.722 113.430 C 465.995 108.441, 456.878 104.302, 448.826 103.035 C 441.412 101.870, 431.467 102.864, 423.328 105.585 C 412.937 109.059, 402.218 116.673, 393.750 126.596 L 389 132.162 389 78.140 C 389 48.428, 388.663 23.923, 388.250 23.685 C 387.837 23.447, 383.450 24.771, 378.500 26.626 M 88.679 103.009 C 79.735 104.110, 68.955 107.415, 61.506 111.341 C 53.973 115.311, 43.064 125.929, 39.723 132.543 C 33.262 145.336, 31.862 159.962, 35.953 171.946 C 39.872 183.428, 47.964 193.378, 58.313 199.443 C 60.891 200.954, 63 202.526, 63 202.936 C 63 203.346, 60.647 204.963, 57.771 206.528 C 54.895 208.094, 49.987 211.878, 46.864 214.937 C 40.915 220.767, 39.016 224.957, 39.006 232.282 C 38.994 239.836, 44.125 247.500, 51.804 251.403 L 56.353 253.715 48.074 258.022 C 43.521 260.391, 37.569 264.497, 34.849 267.147 C 32.129 269.796, 28.917 274.110, 27.711 276.732 C 26.001 280.454, 25.520 283.365, 25.522 290 C 25.524 296.925, 25.947 299.296, 27.805 302.795 C 29.060 305.157, 31.693 308.868, 33.656 311.041 C 49.137 328.176, 91.827 335.649, 125.242 327.073 C 141.763 322.833, 152.845 316.939, 163.168 306.903 C 168.158 302.052, 170.881 298.349, 173.461 292.903 C 175.391 288.832, 177.440 283.025, 178.016 280 C 179.265 273.434, 178.453 265.417, 175.818 258.298 C 174.759 255.437, 171.920 250.903, 169.509 248.221 C 167.098 245.539, 162.426 241.907, 159.127 240.148 C 155.827 238.390, 149.612 236.023, 145.314 234.890 C 138.436 233.076, 133.247 232.746, 102 232.139 C 71.014 231.537, 66.089 231.228, 63.267 229.708 C 61.489 228.750, 59.302 226.551, 58.407 224.821 C 57.075 222.243, 56.982 221.002, 57.898 217.947 C 59.112 213.893, 65.523 207.409, 69.238 206.476 C 70.497 206.161, 74.220 206.642, 77.513 207.546 C 80.806 208.451, 88.039 209.429, 93.586 209.719 C 107.204 210.433, 117.701 208.332, 129.500 202.531 C 134.450 200.098, 140.813 196.066, 143.641 193.571 C 149.872 188.074, 155.824 179.347, 158.150 172.298 C 159.096 169.429, 160.163 164.025, 160.521 160.290 C 161.705 147.915, 156.799 132.647, 148.940 124.250 L 145.899 121 155.205 121 L 164.511 121 171.102 112.750 L 177.693 104.500 164.697 104.220 L 151.700 103.940 147.100 107.729 C 138.376 114.915, 139.747 114.640, 132.249 110.701 C 119.927 104.229, 103.022 101.244, 88.679 103.009 M 254.500 103.061 C 235.032 104.981, 215.815 115.024, 203.910 129.500 C 197.802 136.927, 191.683 148.523, 189.586 156.644 C 188.714 160.024, 188 163.061, 188 163.394 C 188 163.727, 194.741 164, 202.981 164 L 217.962 164 218.382 161.750 C 220.554 150.131, 222.828 142.577, 226.158 135.925 C 231.437 125.378, 238.396 117.914, 246.813 113.774 L 253.469 110.500 263.984 110.500 L 274.500 110.500 280.792 113.912 C 284.391 115.863, 289.411 119.837, 292.521 123.196 C 298.680 129.848, 303.791 139.711, 307.189 151.500 C 309.244 158.632, 309.490 161.562, 309.452 178.500 L 309.410 197.500 306.698 206.288 C 303.116 217.899, 298.220 227.427, 292.658 233.613 C 290.165 236.386, 285.510 240.037, 282.313 241.726 C 268.366 249.096, 254.270 248.265, 241.178 239.302 C 235.581 235.469, 228.344 226.294, 225.060 218.866 C 223.039 214.296, 219.616 202.159, 218.539 195.750 L 217.909 192 202.909 192 L 187.909 192 188.604 195.750 C 189.753 201.951, 192.785 209.924, 196.568 216.689 C 200.598 223.895, 210.294 234.730, 216.586 239.059 C 223.384 243.737, 234.078 248.738, 241.941 250.917 C 251.664 253.611, 264.626 254.478, 274.439 253.090 C 284.192 251.711, 297.115 247.351, 304.749 242.865 C 307.898 241.014, 314.344 235.674, 319.071 230.997 C 326.264 223.883, 328.429 220.945, 332.333 212.997 C 339.107 199.207, 340.486 193.091, 340.451 177 L 340.421 163.500 337.164 154.054 C 335.373 148.859, 332.288 141.944, 330.310 138.688 C 325.306 130.449, 316.045 120.848, 307.844 115.396 C 304.033 112.862, 296.771 109.309, 291.707 107.500 C 286.562 105.662, 278.530 103.724, 273.500 103.108 C 268.550 102.502, 264.050 102.066, 263.500 102.139 C 262.950 102.212, 258.900 102.628, 254.500 103.061 M 89.734 110.027 C 76.850 113.272, 68.483 122.555, 64.284 138.265 C 61.962 146.955, 62.030 166.410, 64.411 174.500 C 68.186 187.324, 74.240 195.398, 84 200.625 C 86.753 202.100, 89.635 202.500, 97.500 202.500 L 107.500 202.500 112.819 199.554 C 115.744 197.933, 119.458 195.104, 121.071 193.267 C 125.024 188.765, 128.705 181.285, 130.683 173.735 C 132.871 165.385, 132.863 147.587, 130.669 139.210 C 128.365 130.416, 124.637 122.962, 120.316 118.514 C 118.291 116.428, 114.285 113.646, 111.414 112.332 C 105.518 109.633, 95.520 108.570, 89.734 110.027 M 59 258.453 C 49.473 265.541, 45.115 276.787, 47.099 289.165 C 47.658 292.649, 49.291 297.512, 50.729 299.971 C 54.475 306.378, 62.075 313.273, 69.277 316.798 C 78.891 321.505, 87.025 323.246, 99.500 323.266 C 107.791 323.280, 112.462 322.743, 118.465 321.086 C 122.846 319.877, 129.133 317.451, 132.437 315.694 C 135.741 313.937, 140.734 310.213, 143.533 307.417 C 150.413 300.546, 153.270 294.361, 153.801 285.189 C 154.340 275.884, 152.355 270.316, 146.805 265.565 C 139.354 259.188, 136.953 258.778, 102 257.921 C 84.675 257.496, 68.700 256.856, 66.500 256.499 C 63.153 255.955, 61.928 256.274, 59 258.453"/>
    </g>
  </g>
</svg>
